<?xml version="1.0" encoding="UTF-8"?> <svg xmlns="http://www.w3.org/2000/svg" width="665" height="172" viewBox="0 0 665 172" fill="none"> <path d="M155.392 37.4115C139.992 31.1367 120.785 38.0552 108.463 47.5483C104.658 50.4442 104.296 55.5935 107.557 58.9724C110.819 62.3511 116.617 62.6726 120.422 59.7767C129.482 52.6976 141.259 49.4792 147.963 52.0541C155.754 55.1105 156.842 66.857 156.842 73.4531C156.842 80.0504 155.756 91.7952 147.963 94.8522C141.259 97.7494 129.48 94.5308 120.422 87.4521L69.3265 47.7078C57.0057 38.2148 37.7997 31.296 22.3972 37.5709C13.5183 41.1117 2.82812 50.2823 2.82812 73.6116C2.82812 96.9408 13.5183 106.114 22.3972 109.812C37.7983 116.087 57.0041 109.168 69.3265 99.6752C73.1314 96.7794 73.4932 91.6301 70.2321 88.251C66.971 84.8723 61.1723 84.551 57.3673 87.4468C48.3075 94.5256 36.5306 97.7442 29.8266 95.1692C22.0358 92.1127 20.9476 80.3665 20.9476 73.7706C20.9476 67.1733 22.0342 55.428 29.8266 52.3718C36.3501 49.6364 48.3079 53.0155 57.1868 60.0942L108.282 99.8349C117.343 106.914 130.024 112.385 142.347 112.385C146.696 112.385 151.043 111.741 155.212 109.97C164.09 106.431 174.781 97.0985 174.781 73.77C174.96 50.2807 164.271 41.1117 155.392 37.4115Z" fill="#081B27"></path> <path d="M283.993 33.9248V115.213H270.895L232.592 59.8432H231.918V115.213H217.191V33.9248H230.37L268.631 89.3339H269.347V33.9248H283.993ZM326.394 116.403C320.281 116.403 315.002 115.133 310.556 112.593C306.137 110.026 302.737 106.401 300.354 101.718C297.974 97.0075 296.784 91.464 296.784 85.0869C296.784 78.8156 297.974 73.3118 300.354 68.5753C302.762 63.8123 306.123 60.1078 310.437 57.4617C314.749 54.7892 319.818 53.4529 325.638 53.4529C329.397 53.4529 332.941 54.0615 336.277 55.2787C339.636 56.4695 342.599 58.3217 345.167 60.8355C347.759 63.3493 349.797 66.551 351.278 70.4408C352.761 74.3041 353.502 78.9082 353.502 84.2534V88.6592H303.531V78.9744H339.729C339.703 76.2224 339.108 73.7748 337.943 71.6316C336.779 69.4618 335.152 67.755 333.06 66.5113C330.996 65.2678 328.588 64.6458 325.836 64.6458C322.9 64.6458 320.32 65.3603 318.098 66.7893C315.874 68.1916 314.142 70.0438 312.898 72.3459C311.681 74.6216 311.058 77.1221 311.032 79.8476V88.3019C311.032 91.8477 311.681 94.8905 312.978 97.4308C314.274 99.9446 316.085 101.876 318.414 103.226C320.743 104.549 323.47 105.21 326.591 105.21C328.681 105.21 330.573 104.919 332.267 104.337C333.96 103.729 335.428 102.842 336.672 101.678C337.916 100.514 338.857 99.0715 339.491 97.3515L352.907 98.8598C352.059 102.406 350.446 105.501 348.064 108.148C345.709 110.767 342.692 112.805 339.015 114.26C335.336 115.689 331.129 116.403 326.394 116.403ZM383.201 116.443C379.338 116.443 375.858 115.755 372.762 114.379C369.692 112.977 367.258 110.913 365.459 108.187C363.686 105.462 362.8 102.101 362.8 98.1055C362.8 94.6657 363.435 91.8212 364.704 89.572C365.975 87.3227 367.707 85.5234 369.904 84.1739C372.1 82.8244 374.575 81.8057 377.327 81.1177C380.105 80.4034 382.976 79.8874 385.939 79.5699C389.512 79.1994 392.41 78.8686 394.632 78.5774C396.854 78.2599 398.469 77.7836 399.474 77.1486C400.506 76.4871 401.022 75.4684 401.022 74.0924V73.8543C401.022 70.8641 400.136 68.5488 398.363 66.9083C396.589 65.2678 394.037 64.4473 390.702 64.4473C387.183 64.4473 384.391 65.2148 382.327 66.7495C380.291 68.2843 378.915 70.0968 378.199 72.1871L364.783 70.2821C365.843 66.5775 367.589 63.4815 370.024 60.9943C372.458 58.4805 375.435 56.6017 378.954 55.358C382.473 54.088 386.362 53.4529 390.623 53.4529C393.561 53.4529 396.484 53.7969 399.395 54.4849C402.305 55.1729 404.964 56.3107 407.372 57.8983C409.78 59.4595 411.711 61.5895 413.169 64.2886C414.649 66.9876 415.391 70.3613 415.391 74.4099V115.213H401.577V106.838H401.101C400.229 108.531 398.997 110.119 397.41 111.601C395.85 113.056 393.877 114.234 391.497 115.133C389.142 116.006 386.376 116.443 383.201 116.443ZM386.932 105.885C389.816 105.885 392.317 105.316 394.432 104.178C396.55 103.014 398.177 101.479 399.316 99.5743C400.48 97.669 401.061 95.5918 401.061 93.3427V86.1585C400.613 86.529 399.845 86.873 398.76 87.1905C397.7 87.508 396.51 87.7859 395.188 88.024C393.865 88.2622 392.554 88.4739 391.257 88.6592C389.962 88.8442 388.837 89.003 387.885 89.1354C385.741 89.4265 383.822 89.9027 382.129 90.5642C380.435 91.2257 379.099 92.152 378.12 93.3427C377.141 94.507 376.651 96.0153 376.651 97.8675C376.651 100.514 377.618 102.511 379.549 103.861C381.481 105.21 383.942 105.885 386.932 105.885ZM429.839 115.213V54.2467H443.769V64.4078H444.405C445.516 60.8885 447.42 58.1762 450.121 56.271C452.845 54.3394 455.955 53.3735 459.448 53.3735C460.241 53.3735 461.129 53.4132 462.107 53.4927C463.112 53.5455 463.946 53.6382 464.608 53.7705V66.9876C463.999 66.776 463.033 66.5908 461.71 66.432C460.413 66.2468 459.156 66.1541 457.94 66.1541C455.32 66.1541 452.966 66.723 450.874 67.8608C448.81 68.9723 447.183 70.5201 445.993 72.5048C444.801 74.4893 444.206 76.7781 444.206 79.3714V115.213H429.839ZM474.788 115.213V33.9248H505.271C511.517 33.9248 516.756 35.0891 520.989 37.4176C525.249 39.7461 528.464 42.9479 530.635 47.0229C532.831 51.0714 533.928 55.6757 533.928 60.8355C533.928 66.0483 532.831 70.6788 530.635 74.7274C528.438 78.7759 525.196 81.9644 520.91 84.293C516.624 86.5952 511.345 87.7462 505.072 87.7462H484.871V75.6404H503.089C506.74 75.6404 509.73 75.0053 512.059 73.7351C514.387 72.4651 516.108 70.7186 517.219 68.4958C518.355 66.2733 518.925 63.7198 518.925 60.8355C518.925 57.9512 518.355 55.411 517.219 53.2147C516.108 51.0184 514.374 49.3117 512.019 48.0946C509.69 46.8509 506.687 46.2291 503.01 46.2291H489.515V115.213H474.788ZM562.536 116.443C558.673 116.443 555.193 115.755 552.097 114.379C549.027 112.977 546.593 110.913 544.794 108.187C543.021 105.462 542.135 102.101 542.135 98.1055C542.135 94.6657 542.769 91.8212 544.041 89.572C545.31 87.3227 547.044 85.5234 549.24 84.1739C551.435 82.8244 553.91 81.8057 556.662 81.1177C559.44 80.4034 562.31 79.8874 565.274 79.5699C568.846 79.1994 571.745 78.8686 573.967 78.5774C576.189 78.2599 577.804 77.7836 578.808 77.1486C579.84 76.4871 580.356 75.4684 580.356 74.0924V73.8543C580.356 70.8641 579.471 68.5488 577.697 66.9083C575.926 65.2678 573.372 64.4473 570.038 64.4473C566.517 64.4473 563.726 65.2148 561.662 66.7495C559.625 68.2843 558.249 70.0968 557.534 72.1871L544.12 70.2821C545.177 66.5775 546.923 63.4815 549.359 60.9943C551.793 58.4805 554.77 56.6017 558.289 55.358C561.808 54.088 565.699 53.4529 569.957 53.4529C572.895 53.4529 575.819 53.7969 578.729 54.4849C581.641 55.1729 584.301 56.3107 586.708 57.8983C589.116 59.4595 591.048 61.5895 592.503 64.2886C593.984 66.9876 594.725 70.3613 594.725 74.4099V115.213H580.912V106.838H580.437C579.564 108.531 578.334 110.119 576.744 111.601C575.184 113.056 573.213 114.234 570.831 115.133C568.477 116.006 565.711 116.443 562.536 116.443ZM566.266 105.885C569.151 105.885 571.652 105.316 573.769 104.178C575.884 103.014 577.513 101.479 578.65 99.5743C579.815 97.669 580.396 95.5918 580.396 93.3427V86.1585C579.947 86.529 579.18 86.873 578.095 87.1905C577.037 87.508 575.845 87.7859 574.522 88.024C573.2 88.2622 571.889 88.4739 570.594 88.6592C569.297 88.8442 568.172 89.003 567.219 89.1354C565.076 89.4265 563.158 89.9027 561.464 90.5642C559.77 91.2257 558.435 92.152 557.455 93.3427C556.476 94.507 555.988 96.0153 555.988 97.8675C555.988 100.514 556.953 102.511 558.884 103.861C560.816 105.21 563.277 105.885 566.266 105.885ZM615.921 138.075C613.962 138.075 612.151 137.916 610.482 137.599C608.843 137.307 607.532 136.963 606.554 136.567L609.887 125.373C611.979 125.982 613.843 126.273 615.484 126.247C617.125 126.22 618.566 125.704 619.81 124.699C621.081 123.72 622.152 122.079 623.026 119.777L624.256 116.483L602.147 54.2467H617.39L631.44 100.289H632.075L646.165 54.2467H661.447L637.037 122.595C635.898 125.823 634.39 128.589 632.512 130.891C630.634 133.219 628.331 134.992 625.606 136.209C622.906 137.453 619.677 138.075 615.921 138.075Z" fill="#081B27"></path> </svg> 